<?xml version="1.0" encoding="UTF-8"?>
<svg id="Layer_1" data-name="Layer 1" xmlns="http://www.w3.org/2000/svg" viewBox="0 0 200 200">
  <defs>
    <style>
      .cls-1 {
        stroke-width: .25px;
      }

      .cls-1, .cls-2 {
        fill: #777e91;
        stroke: #777e91;
        stroke-miterlimit: 10;
      }

      .cls-2 {
        stroke-width: 5px;
      }
    </style>
  </defs>
  <g id="Line">
    <g>
      <path class="cls-1" d="m170.46,29.54v140.92H29.54V29.54h140.92Zm5.03-5.03H24.51v150.98h150.98V24.51Z"/>
      <path class="cls-2" d="m170.46,34.72v130.56c0,2.86-2.32,5.18-5.18,5.18H34.72c-2.86,0-5.18-2.32-5.18-5.18V34.72c0-2.86,2.32-5.18,5.18-5.18h130.56c2.86,0,5.18,2.32,5.18,5.18Zm-.15-10.21H29.69c-2.86,0-5.18,2.32-5.18,5.18v140.62c0,2.86,2.32,5.18,5.18,5.18h140.62c2.86,0,5.18-2.32,5.18-5.18V29.69c0-2.86-2.32-5.18-5.18-5.18Z"/>
    </g>
    <path class="cls-1" d="m139.62,132.83v-29.3c0-15.7-8.38-23-19.55-23-9.02,0-13.05,4.96-15.31,8.44v-7.24h-16.99c.23,4.8,0,51.1,0,51.1h16.99v-28.54c0-1.52.11-3.05.56-4.14,1.23-3.05,4.02-6.21,8.71-6.21,6.15,0,8.61,4.69,8.61,11.56v27.34h16.99Zm-69.74-58.08c5.92,0,9.61-3.93,9.61-8.83-.11-5.01-3.69-8.83-9.5-8.83s-9.61,3.81-9.61,8.83,3.69,8.83,9.39,8.83h.11Zm8.49,58.08v-51.1h-16.99v51.1h16.99Z"/>
  </g>
</svg>